<?xml version="1.0" encoding="utf-8"?>
<!-- Generator: Adobe Illustrator 19.1.0, SVG Export Plug-In . SVG Version: 6.00 Build 0)  -->
<svg version="1.1" id="Layer_1" xmlns="http://www.w3.org/2000/svg" xmlns:xlink="http://www.w3.org/1999/xlink" x="0px" y="0px"
	 viewBox="62 347 736 100" style="enable-background:new 62 347 736 100;" xml:space="preserve">
<style type="text/css">
	.st0{opacity:0.55;fill:#FFFFFF;}
	.st1{fill:#FFFFFF;}
</style>
<g>
	<polyline class="st0" points="201.2,350.5 241.4,350.5 241.4,362.7 214.7,362.7 214.7,389.3 238,389.3 238,401.5 214.7,401.5 
		214.7,428 241.4,428 241.4,441 201.2,441 201.2,350.5 	"/>
	<path class="st0" d="M294.2,422.3c0,2.8-0.5,5.5-1.6,8.1c-1.1,2.6-2.6,4.8-4.5,6.7c-1.9,1.9-4.1,3.5-6.7,4.6
		c-2.5,1.2-5.3,1.7-8.2,1.7c-2.5,0-5-0.3-7.6-1c-2.6-0.7-4.9-1.9-7-3.5c-2.1-1.7-3.8-3.9-5.1-6.6c-1.3-2.7-2-6.2-2-10.4v-50.3
		c0-3,0.5-5.8,1.6-8.3c1-2.6,2.5-4.8,4.4-6.7c1.9-1.9,4.2-3.4,6.8-4.4c2.6-1.1,5.5-1.6,8.7-1.6c3,0,5.8,0.5,8.4,1.6
		c2.6,1.1,4.8,2.6,6.7,4.5c1.9,1.9,3.4,4.2,4.5,6.9c1.1,2.7,1.6,5.6,1.6,8.8v5.1H281v-4.4c0-2.6-0.7-4.8-2.2-6.7
		c-1.5-1.9-3.5-2.8-6-2.8c-3.3,0-5.5,1-6.5,3c-1.1,2-1.6,4.6-1.6,7.6V421c0,2.7,0.6,4.9,1.7,6.7c1.2,1.8,3.3,2.7,6.3,2.7
		c0.9,0,1.8-0.2,2.8-0.5c1-0.3,1.9-0.8,2.7-1.5c0.8-0.7,1.5-1.6,2-2.8c0.5-1.2,0.8-2.7,0.8-4.5v-4.5h13.2L294.2,422.3"/>
	<path class="st1" d="M349.5,420.1c0,2.9-0.6,5.7-1.7,8.2c-1.1,2.5-2.7,4.7-4.6,6.6c-1.9,1.9-4.2,3.4-6.8,4.5
		c-2.6,1.1-5.4,1.6-8.3,1.6c-2.9,0-5.7-0.5-8.3-1.6c-2.6-1.1-4.9-2.6-6.8-4.5c-1.9-1.9-3.5-4.1-4.6-6.6c-1.1-2.5-1.7-5.2-1.7-8.2
		v-69.5H320v68.3c0,3.2,0.8,5.5,2.3,7.1c1.6,1.5,3.5,2.3,5.8,2.3c2.3,0,4.3-0.8,5.8-2.3c1.6-1.5,2.3-3.9,2.3-7.1v-68.3h13.2
		L349.5,420.1"/>
	<polyline class="st1" points="371.9,362.7 357,362.7 357,350.5 399.7,350.5 399.7,362.7 384.8,362.7 384.8,441 371.9,441 
		371.9,362.7 	"/>
	<path class="st1" d="M423,428h5.7c2.7,0,4.8-0.4,6.3-1.1c1.5-0.8,2.7-1.8,3.4-3.2c0.8-1.4,1.3-3,1.4-4.8c0.2-1.9,0.3-3.9,0.3-6.1
		c0-2.3-0.1-4.3-0.4-6c-0.3-1.7-0.8-3.1-1.6-4.3c-0.8-1.1-2-2-3.4-2.6c-1.5-0.6-3.4-0.9-5.8-0.9H423L423,428L423,428z M423,387.6h6
		c4.4,0,7.4-1.1,8.9-3.2c1.5-2.2,2.3-5.3,2.3-9.5c0-4.1-0.8-7.1-2.5-9.2c-1.7-2-4.7-3-9.1-3H423L423,387.6L423,387.6z M409.8,350.5
		h19.3c4.2,0,7.8,0.6,10.8,1.9c3,1.3,5.4,3,7.3,5.1c1.9,2.1,3.3,4.6,4.1,7.3c0.8,2.8,1.2,5.6,1.2,8.6v3.3c0,2.5-0.2,4.5-0.6,6.2
		c-0.4,1.7-1,3.2-1.7,4.4c-0.8,1.3-1.7,2.4-2.9,3.4c-1.1,1-2.4,1.9-3.9,2.7c3.1,1.4,5.4,3.6,6.9,6.4c1.5,2.8,2.2,6.6,2.2,11.4v5.1
		c0,8-2,14.1-5.9,18.3c-3.9,4.2-10.2,6.4-18.8,6.4h-18L409.8,350.5L409.8,350.5z"/>
	<rect x="467.6" y="350.5" class="st1" width="12.6" height="90.5"/>
	<polyline class="st1" points="497.7,350.5 511.2,350.5 511.2,428 537.9,428 537.9,441 497.7,441 497.7,350.5 	"/>
	<path class="st1" d="M561.2,428.8h6.1c3.7,0,6.3-0.9,7.9-2.7c1.6-1.8,2.3-4.7,2.3-8.6v-43.6c0-3.6-0.7-6.3-2.2-8.3
		c-1.5-1.9-4.1-2.9-8-2.9h-6.1V428.8L561.2,428.8z M548,350.5h19.5c7.5,0,13.2,2.1,17.2,6.2c4,4.1,6,9.8,6,17.2v42.3
		c0,8.5-2.1,14.7-6.3,18.7c-4.2,4-10.2,6-18.1,6H548L548,350.5L548,350.5z"/>
	<polyline class="st1" points="603.3,350.5 615.7,350.5 635.3,405 635.5,405 635.5,350.5 648.5,350.5 648.5,441 636.3,441 
		616.5,386.6 616.2,386.6 616.2,441 603.3,441 603.3,350.5 	"/>
	<rect x="666.1" y="350.5" class="st1" width="12.6" height="90.5"/>
	<polyline class="st1" points="693.7,350.5 706.2,350.5 725.7,405 726,405 726,350.5 738.9,350.5 738.9,441 726.8,441 706.9,386.6 
		706.7,386.6 706.7,441 693.7,441 693.7,350.5 	"/>
	<path class="st1" d="M751.5,372.9c0-3.7,0.7-6.9,2-9.8c1.3-2.8,3.1-5.2,5.2-7c2.2-1.8,4.6-3.2,7.3-4.2c2.7-0.9,5.4-1.4,8.1-1.4
		s5.4,0.5,8.1,1.4c2.7,0.9,5.1,2.3,7.3,4.2c2.2,1.8,3.9,4.2,5.2,7c1.3,2.8,2,6.1,2,9.8v4.6h-13.5v-4.6c0-3.2-0.9-5.5-2.7-7
		c-1.8-1.5-3.9-2.2-6.4-2.2c-2.5,0-4.6,0.7-6.4,2.2c-1.8,1.5-2.7,3.8-2.7,7v48.3c0,3.2,0.9,5.5,2.7,7c1.8,1.5,3.9,2.2,6.4,2.2
		c2.5,0,4.6-0.7,6.4-2.2c1.8-1.5,2.7-3.8,2.7-7v-17.2h-10.7v-11.6h24.2v28.8c0,3.8-0.7,7-2,9.8c-1.3,2.8-3.1,5.1-5.2,6.9
		c-2.2,1.8-4.6,3.2-7.3,4.2c-2.7,0.9-5.4,1.4-8.1,1.4s-5.4-0.5-8.1-1.4c-2.7-0.9-5.1-2.3-7.3-4.2c-2.2-1.8-3.9-4.2-5.2-6.9
		c-1.3-2.8-2-6.1-2-9.8V372.9"/>
	<path class="st0" d="M115.8,348v17c17,1.3,30.4,15.1,30.4,32s-13.4,30.8-30.4,32v17c26.5-1.3,47.7-22.7,47.7-49
		S142.3,349.3,115.8,348"/>
	<path class="st0" d="M120.8,397c0-4.7-3.9-8.5-8.7-8.5H81.5c3.7-13.1,15.7-22.9,30.1-23.6V348C84.7,348.8,63,370.5,63,397
		c0,26.5,21.7,48.2,48.6,49v-16.9c-14.4-0.7-26.4-10.5-30.1-23.6h30.6C116.9,405.5,120.8,401.7,120.8,397"/>
</g>
</svg>
