<?xml version="1.0" encoding="utf-8"?>
<!-- Generator: Adobe Illustrator 19.1.0, SVG Export Plug-In . SVG Version: 6.00 Build 0)  -->
<!DOCTYPE svg PUBLIC "-//W3C//DTD SVG 1.1//EN" "http://www.w3.org/Graphics/SVG/1.1/DTD/svg11.dtd">
<svg version="1.1" id="Layer_1" xmlns="http://www.w3.org/2000/svg" xmlns:xlink="http://www.w3.org/1999/xlink" x="0px" y="0px"
	 viewBox="87 348 786.2 98" style="enable-background:new 87 348 786.2 98;" xml:space="preserve">
<style type="text/css">
	.st0{display:none;fill:#00AEEF;}
	.st1{fill:#00AEEF;}
</style>
<rect x="84" y="-73.7" class="st0" width="634.9" height="128.2"/>
<g>
	<g>
		<polygon class="st1" points="87,403.1 115.4,403.1 115.4,425.7 87,425.7 		"/>
		<polygon class="st1" points="115.4,380.6 143.7,380.6 143.7,403.1 115.4,403.1 		"/>
		<polygon class="st1" points="143.7,358 172.1,358 172.1,380.6 143.7,380.6 		"/>
	</g>
	<g>
		<path class="st1" d="M199.8,376.8c5.3,3,10.8,5.8,10.8,13.8c0,9-8.4,12.5-15.4,12.5c-5.2,0-8.4-1.4-10.5-2.7
			c-1.2-2.6-2.1-7.6-2.1-11.8l2.1-0.5c0.7,4.8,3.2,12.8,12.4,12.8c4.6,0,8-3,8-8.2c0-4.9-4.1-8.2-9.3-10.6l-4.3-2.3
			c-3.8-2.1-7.3-6.2-7.3-11.2c0-8.1,6.8-11.6,13.9-11.6c4.1,0,7.5,1.1,9.2,2.1c0.5,2.1,0.7,7.5,0.7,9.2h-1.7
			c-0.7-3.3-1.7-9.2-9.3-9.2c-3.9,0-7.3,2.8-7.3,7.3c0,3.9,2.9,6.1,6.5,8.2L199.8,376.8z"/>
		<path class="st1" d="M231.1,386.7V398c-0.5,0.7-2.1,2.7-5.1,2.7c-3.8,0-6.2-2.3-6.2-6.1c0-6.3,6.5-7.9,10.4-7.9H231.1z M220.6,365
			c1.7,0,3.3-1.5,3.3-3.3c0-1.7-1.5-3.3-3.3-3.3c-1.8,0-3.3,1.5-3.3,3.3C217.4,363.5,218.8,365,220.6,365z M232.8,365
			c1.8,0,3.3-1.5,3.3-3.3c0-1.7-1.5-3.3-3.3-3.3c-1.7,0-3.3,1.5-3.3,3.3C229.5,363.5,231.1,365,232.8,365z M241.8,400.5
			c-0.3,0.1-0.5,0.3-1.2,0.3c-3.7,0-3.7-5-3.7-9.7v-9.6c0-6.8-1.6-10.8-9.2-10.8c-7.1,0-11.4,4.5-13.4,7.1c0.5,1.2,1,1.9,1.7,2.7
			h0.5c1.3-2.5,2.9-6.7,8.3-6.7c5,0,6.2,3.8,6.2,8.2v1.5c-5.9,1.7-17.4,4.3-17.4,13c0,3.7,3.3,6.5,8.3,6.5c5.2,0,7.7-1.4,9.8-2.8
			c0.7,1.4,1.9,2.8,5.3,2.8c2.8,0,4.2-1.1,5.1-1.7L241.8,400.5z"/>
		<path class="st1" d="M243.8,400.6l1.6-0.2c2.3-0.3,2.9-0.3,2.9-4.9v-30.9c0-5.3,0-8.4-2.4-8.4c-0.3,0-0.8,0.1-0.9,0.1l-1,0.1
			l-0.2-1.5c2.1-0.5,7.6-1.1,10.4-1.1v41.6c0,4.6,0.5,4.6,3,4.9l1.5,0.2v1.5h-14.9V400.6z"/>
		<path class="st1" d="M271.4,396.3c0,9,0,15.4-10.3,20.8c-0.6-0.5-0.8-0.9-1-1.5c5.5-2.6,5.5-8.2,5.5-21.6v-11.4
			c0-6.5,0-8.4-1.9-8.4c-0.3,0-0.8,0.1-0.9,0.1l-1.5,0.4l-0.3-1.6c1.9-0.6,8-2.3,10.3-2.3L271.4,396.3L271.4,396.3z M264.1,359.3
			c0-2,1.5-3.7,3.7-3.7c2.2,0,3.7,1.7,3.7,3.7c0,1.9-1.5,3.7-3.7,3.7C265.6,363.1,264.1,361.3,264.1,359.3z"/>
		<path class="st1" d="M292.3,365.6c0-3,2.1-6.4,5.1-6.4c2.7,0,4.2,2.7,4.2,5.9c0,5-4.4,8-6.6,9.4
			C294.1,373,292.3,370.2,292.3,365.6z M321.7,405.6c0-4.1-1.7-8-5.9-11.5c1.5-2.1,4.1-5.1,4.1-11.4c0-6.8-4.8-10.9-8.7-10.9
			c-1.9,0-3.5,0.7-5.1,1.3v0.6c3.5,0.9,9.9,4.3,9.9,12.6c0,2.1-0.8,4.5-2,6.1c-5.1-4.1-13.5-11.6-17.6-16.2c0.3-0.3,10-6.1,10-12.7
			c0-3.7-2.6-6.5-6.7-6.5c-5.6,0-11.3,4.7-11.3,12.7c0,2.7,1,5.7,2.3,8c-3.2,2.1-10.2,6.1-10.2,13.2c0,7.5,7.3,12.2,15.2,12.2
			c9.6,0,13.8-3.3,16.6-5.3c3.3,2.5,7.2,5.5,8.6,7.9H321.7z M286.6,388.1c0-5.1,2.7-7.3,5.1-8.8c6.2,7.3,12.9,12.2,18.8,16.8
			c-1.1,1.3-4.7,3.7-10.4,3.7C291.9,400,286.6,395.2,286.6,388.1z"/>
		<path class="st1" d="M327.3,400.6l1.7-0.4c1-0.2,1.7-0.5,2.1-0.8c0.7-0.7,1.1-4.9,1.5-11l1.1-16.8c0.3-4.5,0.7-11.8,0.7-13.6
			l1.8-0.6c2,3.5,17.2,32.3,19.3,35.9c2.1-3.4,17.1-31.9,18.4-35.3l1.7-0.6c0,0.5,0.5,8,0.9,16.8l0.6,11.6
			c0.3,5.7,0.7,12.2,1.3,13.2c0.3,0.7,1.3,1.1,2.5,1.3l2,0.4v1.5h-17.1v-1.5l2.6-0.4c2.9-0.3,3.1-1.4,3.1-4.5
			c0-7.4-1.1-21.4-1.1-25.7h-0.1c-1.1,2.9-8,16-14.6,29.1c-0.3,0.7-0.6,1.5-0.9,2.1l-1.9,0.9c-1.5-3.1-10-19.4-14.6-28.2
			c-0.7-1.3-1.3-2.5-1.8-3.9h-0.1c-0.2,3.8-1.1,22.7-1.1,24.8c0,3.9,0,5.1,3.1,5.4l2.7,0.4v1.5h-13.8L327.3,400.6L327.3,400.6z"/>
		<path class="st1" d="M401.9,386.7V398c-0.5,0.7-2.1,2.7-5.1,2.7c-3.8,0-6.2-2.3-6.2-6.1c0-6.3,6.5-7.9,10.4-7.9H401.9z
			 M412.6,400.5c-0.3,0.1-0.5,0.3-1.2,0.3c-3.7,0-3.7-5-3.7-9.7v-9.6c0-6.8-1.6-10.8-9.2-10.8c-7.1,0-11.4,4.5-13.4,7.1
			c0.5,1.2,1,1.9,1.7,2.7h0.5c1.3-2.5,2.9-6.7,8.3-6.7c5,0,6.2,3.8,6.2,8.2v1.5c-5.9,1.7-17.4,4.3-17.4,13c0,3.7,3.3,6.5,8.3,6.5
			c5.2,0,7.7-1.4,9.8-2.8c0.7,1.4,1.9,2.8,5.3,2.8c2.8,0,4.2-1.1,5.1-1.7L412.6,400.5z"/>
		<path class="st1" d="M414.5,400.6l1.6-0.2c2.3-0.3,2.9-0.3,2.9-4.9v-13c0-6.9,0-8.4-1.9-8.4c-0.5,0-1.1,0.3-1.6,0.4l-0.6,0.2
			l-0.5-1.6c3.3-1.2,7.8-2.5,9.7-2.5c0.3,1.1,0.5,2.5,0.5,4.3c1-1.1,3.9-4.3,7.3-4.3c2.1,0,4.2,1.5,5.1,2c-0.9,1.6-1.9,2.6-3.4,3.8
			c-0.9-0.3-4.5-1.5-5.5-1.5c-2.1,0-3.2,1.6-3.2,2.6v17.9c0,4.6,0.5,4.6,4.1,4.9l1.5,0.2v1.5h-16V400.6z"/>
		<path class="st1" d="M436,400.6l1.6-0.2c2.3-0.3,2.9-0.3,2.9-4.9v-30.9c0-5.3,0-8.4-2.4-8.4c-0.3,0-0.8,0.1-0.9,0.1l-1,0.1
			l-0.2-1.5c2.1-0.5,7.6-1.1,10.4-1.1v30.9h1.1c2.4,0,4.1-0.8,6-2.9l2.4-2.8c2.3-2.6,3.6-4.1,3.6-5.1c0-0.7-1-0.7-2.1-0.8l-2.1-0.1
			v-1.5h13.4v1.5l-1.3,0.1c-2.4,0.3-3.3,0.5-5.3,2.6l-2.7,3c-1.9,2-3.5,4.1-4.3,4.9c0.8,1.3,2.3,3.8,4.3,6.5l3.5,4.8
			c3.7,5.1,4.7,5.5,6.6,5.5v1.5h-3.7c-3.2,0-3.8-0.3-5-1c-1.3-0.7-3.6-3.6-5.7-6.8l-2.5-3.9c-1.2-1.8-2.3-3.3-4.4-3.3h-1.7v8.5
			c0,4.6,0.5,4.6,3,4.9l1.5,0.2v1.5H436L436,400.6L436,400.6z"/>
		<path class="st1" d="M471.2,400.6l1.6-0.2c2.3-0.3,2.9-0.6,2.9-4.9v-13c0-6.5,0-8.4-1.9-8.4c-0.3,0-0.8,0.1-0.9,0.1l-1.5,0.4
			l-0.3-1.6c1.9-0.6,8-2.3,10.4-2.3v4.2c1.5-1.4,5.1-4.2,10.2-4.2c10.4,0,10.4,7.2,10.4,14.9v10c0,4.3,0.5,4.6,3,4.9l1.5,0.2v1.5
			h-14.9v-1.5l1.6-0.2c2.3-0.3,2.9-0.6,2.9-4.9v-9c0-6.3,0-12.8-8-12.8c-3.5,0-5.7,2.1-6.9,3.6v18.1c0,4.3,0.5,4.6,3,4.9l1.5,0.2
			v1.5h-14.9L471.2,400.6L471.2,400.6z"/>
		<path class="st1" d="M526.1,386.7V398c-0.5,0.7-2.1,2.7-5.1,2.7c-3.8,0-6.2-2.3-6.2-6.1c0-6.3,6.5-7.9,10.4-7.9H526.1z
			 M536.8,400.5c-0.3,0.1-0.5,0.3-1.2,0.3c-3.7,0-3.7-5-3.7-9.7v-9.6c0-6.8-1.6-10.8-9.2-10.8c-7.1,0-11.4,4.5-13.4,7.1
			c0.5,1.2,1,1.9,1.7,2.7h0.5c1.3-2.5,2.9-6.7,8.3-6.7c5,0,6.2,3.8,6.2,8.2v1.5c-5.9,1.7-17.4,4.3-17.4,13c0,3.7,3.3,6.5,8.3,6.5
			c5.2,0,7.7-1.4,9.8-2.8c0.7,1.4,1.9,2.8,5.3,2.8c2.8,0,4.2-1.1,5.1-1.7L536.8,400.5z"/>
		<path class="st1" d="M561.3,398.5c-0.8,0.5-3.3,1.5-5.3,1.5c-6.7,0-12-5.5-12-14c0-8.2,4.4-12.9,10.6-12.9c2.9,0,5.1,0.9,6.7,2.3
			V398.5L561.3,398.5z M571.6,399.2l-1.2,0.2c-0.3,0.1-0.8,0.1-1.1,0.1c-1.8,0-2.2-1.5-2.2-5.1V354c-2.8,0-8.2,0.6-10.4,1.1l0.2,1.5
			l1-0.1c0.1,0,0.6-0.1,0.9-0.1c2.4,0,2.4,3.1,2.4,8.4v6.6c-1.5-0.5-3.2-0.6-4.8-0.6c-8,0-18.6,4.8-18.6,17.6
			c0,10.6,7.9,14.8,14.8,14.8c4.6,0,7.5-1.9,9-2.7c0.4,0.9,0.8,2,1.3,2.7c2.3-0.3,5.9-1,9-2.4L571.6,399.2z"/>
		<path class="st1" d="M591.8,380.7c0-3-2.1-7.8-6.5-7.8c-2.5,0-4.3,1.8-4.3,4.7c0,7.6,14.8,5.4,14.8,16.1c0,6.3-5.2,9.4-11.6,9.4
			c-4.3,0-6.7-1.1-8.5-1.9c-1-3-1.3-6.3-1.3-9h1.8c1.3,4.3,3.6,8.7,9,8.7c3,0,4.7-2.6,4.7-4.9c0-9.1-14.8-5.9-14.8-16.8
			c0-5.5,4.9-8.5,10.7-8.5c3.5,0,5.6,1.1,7.1,1.9c0.7,2.4,0.9,4.5,0.9,8.1L591.8,380.7L591.8,380.7z"/>
		<path class="st1" d="M597.3,400.6l1.6-0.2c2.3-0.3,2.9-0.8,2.9-4.9v-30.9c0-5.3,0-8.4-2.4-8.4c-0.3,0-0.8,0.1-0.9,0.1l-1,0.1
			l-0.2-1.5c2.1-0.5,7.5-1.1,10.4-1.1v20.8c1.9-1.6,4.9-4.1,10.5-4.1c9.8,0,10.6,6.2,10.6,13.5v11.4c0,4.1,0.5,4.6,3,4.9l1.5,0.2
			v1.5h-14.9v-1.5l1.6-0.2c2.3-0.3,2.9-0.8,2.9-4.9v-12.2c0-5.5-2.3-9.5-7.9-9.5c-3.7,0-6.1,2.3-7.3,3.4v18.3c0,4.1,0.5,4.6,3,4.9
			l1.5,0.2v1.5h-14.9V400.6z"/>
		<path class="st1" d="M640.1,386.7c0-6.4,2.4-13.6,9.4-13.6c7.8,0,10.8,6.9,10.8,14.8c0,7.1-3.1,12.9-9.2,12.9
			C643.5,400.8,640.1,394.1,640.1,386.7z M644.1,365c1.7,0,3.3-1.5,3.3-3.3c0-1.7-1.5-3.3-3.3-3.3c-1.8,0-3.3,1.5-3.3,3.3
			C640.8,363.5,642.3,365,644.1,365z M656.2,365c1.8,0,3.3-1.5,3.3-3.3c0-1.7-1.5-3.3-3.3-3.3c-1.7,0-3.3,1.5-3.3,3.3
			C652.9,363.5,654.5,365,656.2,365z M649.9,403.1c8.5,0,16.4-5.5,16.4-17c0-9.2-6.5-15.4-16.1-15.4c-8.2,0-16.4,5.7-16.4,16.8
			C633.9,398,641.5,403.1,649.9,403.1z"/>
		<path class="st1" d="M675.7,381.2c0-4.9,2.6-8.1,6.7-8.1c3.5,0,6.7,2.2,6.7,8.6c0,3.9-2.3,7.6-6.6,7.6
			C678.6,389.3,675.7,386.1,675.7,381.2z M683.5,397.1c-4.5,0-7.7-0.3-7.7-2.9c0-1.7,2.1-2.4,3.5-3c1,0.3,2.1,0.3,2.6,0.3
			c7.7,0,13.2-3.7,13.2-10.8c0-2.9-1.2-4.8-1.8-5.5c1.8-0.2,4.7-0.5,6.3-0.8v-1.1c-3.3-0.6-12.3-2.6-16.4-2.6
			c-5.9,0-13.5,2.5-13.5,11.2c0,5.9,4.1,7.7,7,8.6c-2.1,1.4-6,2.7-6,5.4c0,2.9,3.5,4.5,5.4,5.1v0.1c-2.7,0.9-7.5,3-7.5,7.5
			c0,5.6,5.6,9.2,12.8,9.2c10.2,0,17.7-4.5,17.7-12c0-7.6-8.2-8.8-11.3-8.8H683.5z M674.2,407.1c0-4.1,3.3-5.6,8.8-5.6
			c5.7,0,10.7,1.4,10.7,6.1c0,4.2-3.9,8-9.8,8C677.8,415.6,674.2,411.6,674.2,407.1z"/>
		<path class="st1" d="M718.5,380.7c0-3-2.1-7.8-6.5-7.8c-2.5,0-4.3,1.8-4.3,4.7c0,7.6,14.8,5.4,14.8,16.1c0,6.3-5.2,9.4-11.6,9.4
			c-4.3,0-6.7-1.1-8.5-1.9c-1-3-1.3-6.3-1.3-9h1.8c1.3,4.3,3.6,8.7,9,8.7c3,0,4.7-2.6,4.7-4.9c0-9.1-14.8-5.9-14.8-16.8
			c0-5.5,4.9-8.5,10.7-8.5c3.5,0,5.6,1.1,7.1,1.9c0.7,2.4,0.9,4.5,0.9,8.1L718.5,380.7L718.5,380.7z"/>
		<path class="st1" d="M724.2,400.6l1.6-0.2c2.3-0.3,2.9-0.3,2.9-4.9v-30.9c0-5.3,0-8.4-2.4-8.4c-0.3,0-0.8,0.1-0.9,0.1l-1,0.1
			l-0.2-1.5c2.1-0.5,7.5-1.1,10.4-1.1v30.9h1.1c2.4,0,4.1-0.8,6-2.9l2.4-2.8c2.3-2.6,3.6-4.1,3.6-5.1c0-0.7-1-0.7-2.1-0.8l-2.1-0.1
			v-1.5h13.4v1.5l-1.3,0.1c-2.4,0.3-3.3,0.5-5.3,2.6l-2.7,3c-1.9,2-3.5,4.1-4.3,4.9c0.8,1.3,2.3,3.8,4.3,6.5l3.5,4.8
			c3.7,5.1,4.7,5.5,6.6,5.5v1.5h-3.7c-3.2,0-3.8-0.3-5-1c-1.3-0.7-3.6-3.6-5.7-6.8l-2.5-3.9c-1.2-1.8-2.3-3.3-4.4-3.3h-1.7v8.5
			c0,4.6,0.5,4.6,3,4.9l1.5,0.2v1.5h-14.9V400.6z"/>
		<path class="st1" d="M761.8,386.7c0-6.4,2.4-13.6,9.3-13.6c7.8,0,10.8,6.9,10.8,14.8c0,7.1-3.1,12.9-9.2,12.9
			C765.3,400.8,761.8,394.1,761.8,386.7z M771.7,403.1c8.5,0,16.4-5.5,16.4-17c0-9.2-6.5-15.4-16.1-15.4c-8.2,0-16.4,5.7-16.4,16.8
			C755.7,398,763.2,403.1,771.7,403.1z"/>
		<path class="st1" d="M788.2,400.6l1.6-0.2c2.3-0.3,2.9-0.3,2.9-4.9v-30.9c0-5.3,0-8.4-2.4-8.4c-0.3,0-0.8,0.1-0.9,0.1l-1,0.1
			l-0.2-1.5c2.1-0.5,7.5-1.1,10.4-1.1v41.6c0,4.6,0.5,4.6,3,4.9l1.5,0.2v1.5h-14.9L788.2,400.6L788.2,400.6z"/>
		<path class="st1" d="M823.4,386.7V398c-0.5,0.7-2.1,2.7-5.1,2.7c-3.8,0-6.2-2.3-6.2-6.1c0-6.3,6.5-7.9,10.4-7.9H823.4z
			 M834.1,400.5c-0.3,0.1-0.5,0.3-1.2,0.3c-3.7,0-3.7-5-3.7-9.7v-9.6c0-6.8-1.6-10.8-9.2-10.8c-7.1,0-11.4,4.5-13.4,7.1
			c0.5,1.2,1,1.9,1.7,2.7h0.5c1.3-2.5,2.9-6.7,8.3-6.7c5,0,6.2,3.8,6.2,8.2v1.5c-5.9,1.7-17.4,4.3-17.4,13c0,3.7,3.3,6.5,8.3,6.5
			c5.2,0,7.7-1.4,9.8-2.8c0.7,1.4,1.9,2.8,5.3,2.8c2.8,0,4.2-1.1,5.1-1.7L834.1,400.5z"/>
		<path class="st1" d="M836.2,400.6l1.6-0.2c2.3-0.3,2.9-0.6,2.9-4.9v-13c0-6.5,0-8.4-1.9-8.4c-0.3,0-0.8,0.1-0.9,0.1l-1.5,0.4
			l-0.3-1.6c1.9-0.6,8-2.3,10.4-2.3v4.2c1.5-1.4,5.1-4.2,10.2-4.2c10.4,0,10.4,7.2,10.4,14.9v10c0,4.3,0.5,4.6,3,4.9l1.5,0.2v1.5
			h-14.9v-1.5l1.6-0.2c2.3-0.3,2.9-0.6,2.9-4.9v-9c0-6.3,0-12.8-8-12.8c-3.5,0-5.7,2.1-6.9,3.6v18.1c0,4.3,0.5,4.6,3,4.9l1.5,0.2
			v1.5h-14.9V400.6z"/>
	</g>
	<g>
		<path class="st1" d="M187.8,433.3l-1.4-0.8c-0.9-0.5-1.5-1-1.8-1.5c-0.4-0.5-0.5-1.1-0.5-1.7c0-1,0.3-1.8,1-2.4
			c0.7-0.6,1.6-0.9,2.7-0.9c1,0,2,0.3,2.9,0.9v2c-0.9-0.9-1.9-1.3-2.9-1.3c-0.6,0-1.1,0.1-1.4,0.4c-0.4,0.3-0.6,0.6-0.6,1
			c0,0.4,0.1,0.7,0.4,1.1c0.3,0.3,0.7,0.7,1.3,1l1.4,0.8c1.5,0.9,2.3,2.1,2.3,3.5c0,1-0.3,1.8-1,2.4c-0.7,0.6-1.5,0.9-2.6,0.9
			c-1.2,0-2.4-0.4-3.4-1.1v-2.3c1,1.2,2.1,1.8,3.4,1.8c0.6,0,1-0.2,1.4-0.5c0.4-0.3,0.6-0.7,0.6-1.2
			C189.5,434.7,188.9,434,187.8,433.3z"/>
		<path class="st1" d="M209.5,426H220v1.6h-4.4v11h-1.8v-11h-4.3C209.5,427.6,209.5,426,209.5,426z"/>
		<path class="st1" d="M244.1,425.8c1.9,0,3.5,0.6,4.8,1.8c1.3,1.2,1.9,2.8,1.9,4.6c0,1.8-0.7,3.4-1.9,4.6c-1.3,1.2-2.9,1.8-4.9,1.8
			c-1.9,0-3.5-0.6-4.7-1.8c-1.3-1.2-1.9-2.7-1.9-4.5c0-1.9,0.6-3.4,1.9-4.6C240.5,426.4,242.1,425.8,244.1,425.8z M244.1,427.5
			c-1.4,0-2.6,0.4-3.5,1.3c-0.9,0.9-1.4,2-1.4,3.4c0,1.4,0.5,2.5,1.4,3.4c0.9,0.9,2.1,1.3,3.5,1.3c1.4,0,2.6-0.5,3.5-1.4
			s1.4-2.1,1.4-3.4c0-1.3-0.5-2.4-1.4-3.3C246.6,428,245.5,427.5,244.1,427.5z"/>
		<path class="st1" d="M281.3,435.6v2c-1.3,0.7-2.8,1.1-4.6,1.1c-1.4,0-2.6-0.3-3.6-0.8c-1-0.6-1.7-1.3-2.3-2.3
			c-0.6-1-0.9-2.1-0.9-3.2c0-1.8,0.6-3.4,1.9-4.6c1.3-1.2,2.9-1.9,4.8-1.9c1.3,0,2.8,0.3,4.4,1v1.9c-1.5-0.8-2.9-1.3-4.3-1.3
			c-1.4,0-2.6,0.5-3.6,1.4c-0.9,0.9-1.4,2-1.4,3.4c0,1.4,0.5,2.5,1.4,3.4c0.9,0.9,2.1,1.3,3.6,1.3
			C278.4,437,279.8,436.6,281.3,435.6z"/>
		<path class="st1" d="M308,426h2.2l-5.4,5.9l6.8,6.6h-2.4l-6.4-6.2v6.2H301V426h1.8v5.7L308,426z"/>
		<path class="st1" d="M339.3,426h1.8v12.5h-1.8v-5.5h-7v5.5h-1.8V426h1.8v5.4h7V426z"/>
		<path class="st1" d="M367.4,425.8c1.9,0,3.5,0.6,4.8,1.8c1.3,1.2,1.9,2.8,1.9,4.6c0,1.8-0.6,3.4-1.9,4.6c-1.3,1.2-2.9,1.8-4.9,1.8
			c-1.9,0-3.5-0.6-4.7-1.8c-1.3-1.2-1.9-2.7-1.9-4.5c0-1.9,0.6-3.4,1.9-4.6C363.9,426.4,365.5,425.8,367.4,425.8z M367.5,427.5
			c-1.4,0-2.6,0.4-3.5,1.3c-0.9,0.9-1.4,2-1.4,3.4c0,1.4,0.5,2.5,1.4,3.4c0.9,0.9,2.1,1.3,3.5,1.3c1.4,0,2.6-0.5,3.5-1.4
			s1.4-2.1,1.4-3.4c0-1.3-0.5-2.4-1.4-3.3C370,428,368.8,427.5,367.5,427.5z"/>
		<path class="st1" d="M393.8,426h1.8v10.9h5.6v1.6h-7.4L393.8,426L393.8,426z"/>
		<path class="st1" d="M430.2,426h1.7v12.5h-1.8v-9.7l-3.9,4.8h-0.3l-3.9-4.8v9.7h-1.8V426h1.7l4.2,5.1L430.2,426z"/>
		<path class="st1" d="M481.4,432.4h4.2v5.3c-1.5,0.7-3.1,1-4.6,1c-2.1,0-3.7-0.6-5-1.8c-1.2-1.2-1.9-2.7-1.9-4.5
			c0-1.9,0.6-3.4,1.9-4.7c1.3-1.2,2.9-1.9,4.8-1.9c0.7,0,1.4,0.1,2,0.2c0.6,0.2,1.4,0.4,2.4,0.8v1.8c-1.5-0.9-3-1.3-4.4-1.3
			c-1.4,0-2.5,0.5-3.5,1.4c-0.9,0.9-1.4,2.1-1.4,3.4c0,1.4,0.5,2.6,1.4,3.5c0.9,0.9,2.1,1.4,3.6,1.4c0.7,0,1.6-0.2,2.6-0.5l0.2-0.1
			V434h-2.4L481.4,432.4L481.4,432.4z"/>
		<path class="st1" d="M511.8,425.8c1.9,0,3.5,0.6,4.8,1.8c1.3,1.2,1.9,2.8,1.9,4.6c0,1.8-0.6,3.4-2,4.6c-1.3,1.2-2.9,1.8-4.9,1.8
			c-1.9,0-3.5-0.6-4.7-1.8c-1.3-1.2-1.9-2.7-1.9-4.5c0-1.9,0.6-3.4,1.9-4.6C508.3,426.4,509.9,425.8,511.8,425.8z M511.9,427.5
			c-1.4,0-2.6,0.4-3.5,1.3c-0.9,0.9-1.4,2-1.4,3.4c0,1.4,0.5,2.5,1.4,3.4c0.9,0.9,2.1,1.3,3.5,1.3c1.4,0,2.6-0.5,3.5-1.4
			c0.9-0.9,1.4-2.1,1.4-3.4c0-1.3-0.5-2.4-1.4-3.3C514.4,428,513.2,427.5,511.9,427.5z M510,423.2c0.2,0,0.4,0.1,0.6,0.3
			c0.2,0.2,0.3,0.4,0.3,0.6c0,0.2-0.1,0.4-0.2,0.6c-0.2,0.2-0.4,0.2-0.6,0.2c-0.2,0-0.4-0.1-0.6-0.3c-0.2-0.2-0.3-0.4-0.3-0.6
			c0-0.2,0.1-0.4,0.2-0.6C509.6,423.3,509.8,423.2,510,423.2z M513.5,423.2c0.2,0,0.4,0.1,0.6,0.3c0.2,0.2,0.3,0.4,0.3,0.6
			c0,0.2-0.1,0.4-0.2,0.6c-0.2,0.2-0.4,0.2-0.6,0.2c-0.2,0-0.4-0.1-0.6-0.3c-0.2-0.2-0.3-0.4-0.3-0.6c0-0.2,0.1-0.4,0.2-0.6
			C513,423.3,513.2,423.2,513.5,423.2z"/>
		<path class="st1" d="M537.2,426h10.5v1.6h-4.4v11h-1.8v-11h-4.3V426L537.2,426z"/>
		<path class="st1" d="M566.8,426h7.1v1.6h-5.3v3.8h5.1v1.6h-5.1v3.9h5.5v1.6h-7.3V426z"/>
		<path class="st1" d="M597.6,438.5h-4.2V426h3.3c1,0,1.8,0.1,2.4,0.4c0.6,0.3,1,0.7,1.3,1.1c0.3,0.5,0.5,1,0.5,1.7
			c0,1.2-0.6,2.1-1.9,2.6c0.9,0.2,1.6,0.6,2.2,1.1c0.5,0.6,0.8,1.3,0.8,2.1c0,0.6-0.2,1.2-0.5,1.7c-0.3,0.5-0.8,0.9-1.4,1.2
			C599.4,438.4,598.6,438.5,597.6,438.5z M596.7,427.6h-1.5v3.8h1.2c1,0,1.6-0.2,2-0.5c0.4-0.4,0.6-0.8,0.6-1.4
			C599,428.2,598.3,427.6,596.7,427.6z M596.9,433h-1.7v4h1.8c1,0,1.6-0.1,2-0.2c0.3-0.2,0.6-0.4,0.8-0.7c0.2-0.3,0.3-0.7,0.3-1
			c0-0.4-0.1-0.7-0.3-1.1c-0.2-0.3-0.5-0.6-1-0.7C598.4,433,597.8,433,596.9,433z"/>
		<path class="st1" d="M627.3,425.8c1.9,0,3.5,0.6,4.8,1.8c1.3,1.2,1.9,2.8,1.9,4.6c0,1.8-0.6,3.4-2,4.6c-1.3,1.2-2.9,1.8-4.9,1.8
			c-1.9,0-3.5-0.6-4.7-1.8c-1.3-1.2-1.9-2.7-1.9-4.5c0-1.9,0.6-3.4,1.9-4.6C623.8,426.4,625.4,425.8,627.3,425.8z M627.4,427.5
			c-1.4,0-2.6,0.4-3.5,1.3s-1.4,2-1.4,3.4c0,1.4,0.5,2.5,1.4,3.4c0.9,0.9,2.1,1.3,3.5,1.3c1.4,0,2.6-0.5,3.5-1.4
			c0.9-0.9,1.4-2.1,1.4-3.4c0-1.3-0.5-2.4-1.4-3.3C629.9,428,628.8,427.5,627.4,427.5z"/>
		<path class="st1" d="M653.8,438.5V426h3.1c1.3,0,2.3,0.3,3,0.9c0.7,0.6,1.1,1.5,1.1,2.5c0,0.7-0.2,1.4-0.5,1.9
			c-0.4,0.5-0.9,0.9-1.6,1.2c0.4,0.3,0.8,0.6,1.2,1.1c0.4,0.5,0.9,1.2,1.6,2.4c0.4,0.7,0.8,1.2,1.1,1.6l0.7,0.9h-2.1l-0.5-0.8
			c0,0-0.1-0.1-0.1-0.2l-0.3-0.5l-0.6-0.9l-0.6-1c-0.4-0.5-0.7-0.9-1-1.2c-0.3-0.3-0.6-0.5-0.8-0.7c-0.2-0.1-0.7-0.2-1.3-0.2h-0.5
			v5.5L653.8,438.5L653.8,438.5z M656.1,427.5h-0.5v4h0.7c0.9,0,1.5-0.1,1.9-0.2c0.3-0.2,0.6-0.4,0.8-0.7c0.2-0.3,0.3-0.7,0.3-1.1
			c0-0.4-0.1-0.8-0.3-1.1c-0.2-0.3-0.5-0.5-0.9-0.7C657.6,427.6,657,427.5,656.1,427.5z"/>
		<path class="st1" d="M689.1,432.4h4.2v5.3c-1.5,0.7-3.1,1-4.6,1c-2.1,0-3.7-0.6-5-1.8c-1.2-1.2-1.9-2.7-1.9-4.5
			c0-1.9,0.6-3.4,1.9-4.7c1.3-1.2,2.9-1.9,4.8-1.9c0.7,0,1.4,0.1,2,0.2s1.4,0.4,2.4,0.8v1.8c-1.5-0.9-3-1.3-4.4-1.3
			c-1.4,0-2.5,0.5-3.5,1.4c-0.9,0.9-1.4,2.1-1.4,3.4c0,1.4,0.5,2.6,1.4,3.5c0.9,0.9,2.1,1.4,3.6,1.4c0.7,0,1.6-0.2,2.6-0.5l0.2-0.1
			V434h-2.4L689.1,432.4L689.1,432.4z"/>
		<path class="st1" d="M745.8,426h1.7v12.5h-1.8v-9.7l-3.9,4.8h-0.3l-3.9-4.8v9.7h-1.8V426h1.7l4.2,5.1L745.8,426z"/>
		<path class="st1" d="M771.7,425.9h1.3l5.6,12.6h-1.8l-1.7-3.7h-5.3l-1.6,3.7h-1.8L771.7,425.9z M774.3,433.2l-2-4.5l-1.9,4.5
			H774.3z"/>
		<path class="st1" d="M797.4,426h1.8v10.9h5.6v1.6h-7.4L797.4,426L797.4,426z"/>
		<path class="st1" d="M833.8,426h1.7v12.5h-1.8v-9.7l-3.9,4.8h-0.3l-3.9-4.8v9.7h-1.8V426h1.7l4.2,5.1L833.8,426z"/>
		<path class="st1" d="M861.8,425.8c1.9,0,3.5,0.6,4.8,1.8c1.3,1.2,1.9,2.8,1.9,4.6c0,1.8-0.6,3.4-2,4.6c-1.3,1.2-2.9,1.8-4.9,1.8
			c-1.9,0-3.5-0.6-4.7-1.8c-1.3-1.2-1.9-2.7-1.9-4.5c0-1.9,0.6-3.4,1.9-4.6C858.2,426.4,859.8,425.8,861.8,425.8z M861.8,427.5
			c-1.4,0-2.6,0.4-3.5,1.3c-0.9,0.9-1.4,2-1.4,3.4c0,1.4,0.5,2.5,1.4,3.4c0.9,0.9,2.1,1.3,3.5,1.3c1.4,0,2.6-0.5,3.5-1.4
			c0.9-0.9,1.4-2.1,1.4-3.4c0-1.3-0.5-2.4-1.4-3.3C864.3,428,863.2,427.5,861.8,427.5z M859.9,423.2c0.2,0,0.4,0.1,0.6,0.3
			c0.2,0.2,0.3,0.4,0.3,0.6c0,0.2-0.1,0.4-0.2,0.6c-0.2,0.2-0.4,0.2-0.6,0.2c-0.2,0-0.4-0.1-0.6-0.3c-0.2-0.2-0.3-0.4-0.3-0.6
			c0-0.2,0.1-0.4,0.2-0.6C859.5,423.3,859.7,423.2,859.9,423.2z M863.4,423.2c0.2,0,0.4,0.1,0.6,0.3c0.2,0.2,0.3,0.4,0.3,0.6
			c0,0.2-0.1,0.4-0.2,0.6c-0.2,0.2-0.4,0.2-0.6,0.2c-0.2,0-0.4-0.1-0.6-0.3c-0.2-0.2-0.3-0.4-0.3-0.6c0-0.2,0.1-0.4,0.2-0.6
			C863,423.3,863.2,423.2,863.4,423.2z"/>
	</g>
</g>
</svg>
