<?xml version="1.0" encoding="utf-8"?>
<!-- Generator: Adobe Illustrator 19.1.0, SVG Export Plug-In . SVG Version: 6.00 Build 0)  -->
<!DOCTYPE svg PUBLIC "-//W3C//DTD SVG 1.1//EN" "http://www.w3.org/Graphics/SVG/1.1/DTD/svg11.dtd">
<svg version="1.1" id="Layer_1" xmlns="http://www.w3.org/2000/svg" xmlns:xlink="http://www.w3.org/1999/xlink" x="0px" y="0px"
	 viewBox="0 0 786.156 98" style="enable-background:new 0 0 786.156 98;" xml:space="preserve">
<style type="text/css">
	.st0{display:none;fill:#00AEEF;}
	.st1{fill:#FFFFFF;}
</style>
<rect x="-3.016" y="-421.737" class="st0" width="634.852" height="128.184"/>
<g>
	<g>
		<polygon class="st1" points="0,55.145 28.37,55.145 28.37,77.701 0,77.701 0,55.145 		"/>
		<polygon class="st1" points="28.37,32.592 56.737,32.592 56.737,55.145 28.37,55.145 28.37,32.592 		"/>
		<polygon class="st1" points="56.737,10.034 85.107,10.034 85.107,32.592 56.737,32.592 56.737,10.034 		"/>
	</g>
	<g>
		<path class="st1" d="M112.805,28.776c5.278,3.007,10.756,5.812,10.756,13.829c0,9.019-8.351,12.493-15.432,12.493
			c-5.21,0-8.419-1.401-10.489-2.671c-1.203-2.606-2.138-7.552-2.138-11.756l2.138-0.535c0.735,4.81,3.207,12.758,12.359,12.758
			c4.612,0,8.018-3.003,8.018-8.216c0-4.878-4.076-8.216-9.289-10.551l-4.275-2.343c-3.806-2.07-7.347-6.214-7.347-11.223
			c0-8.148,6.814-11.556,13.896-11.556c4.142,0,7.483,1.065,9.219,2.137c0.535,2.137,0.667,7.549,0.667,9.219h-1.67
			c-0.667-3.34-1.736-9.153-9.285-9.153c-3.874,0-7.282,2.805-7.282,7.282c0,3.939,2.873,6.077,6.481,8.216L112.805,28.776z"/>
		<path class="st1" d="M144.14,38.733v11.287c-0.47,0.669-2.14,2.74-5.079,2.74c-3.808,0-6.214-2.27-6.214-6.08
			c0-6.277,6.548-7.947,10.354-7.947H144.14z M133.65,17.021c1.736,0,3.273-1.535,3.273-3.277c0-1.735-1.536-3.268-3.273-3.268
			c-1.804,0-3.272,1.534-3.272,3.268C130.378,15.486,131.846,17.021,133.65,17.021z M145.809,17.021
			c1.803,0,3.274-1.535,3.274-3.277c0-1.735-1.471-3.268-3.274-3.268c-1.737,0-3.275,1.534-3.275,3.268
			C142.533,15.486,144.072,17.021,145.809,17.021z M154.829,52.495c-0.27,0.131-0.535,0.265-1.206,0.265
			c-3.67,0-3.67-5.012-3.67-9.683v-9.554c0-6.817-1.605-10.821-9.223-10.821c-7.08,0-11.355,4.471-13.361,7.148
			c0.468,1.201,1.003,1.866,1.734,2.671h0.539c1.267-2.474,2.937-6.683,8.283-6.683c5.009,0,6.214,3.81,6.214,8.221v1.535
			c-5.882,1.737-17.438,4.342-17.438,13.026c0,3.676,3.34,6.479,8.283,6.479c5.211,0,7.683-1.401,9.822-2.802
			c0.668,1.401,1.871,2.802,5.277,2.802c2.805,0,4.21-1.068,5.079-1.669L154.829,52.495z"/>
		<path class="st1" d="M156.829,52.626l1.605-0.2c2.337-0.268,2.941-0.268,2.941-4.875V16.688c0-5.282,0-8.355-2.406-8.355
			c-0.335,0-0.803,0.068-0.937,0.068l-1.001,0.136l-0.202-1.471C158.969,6.6,164.379,6,167.185,6v41.551
			c0,4.608,0.535,4.608,3.004,4.875l1.54,0.2v1.472h-14.9V52.626z"/>
		<path class="st1" d="M184.418,48.289c0,9.019,0,15.432-10.285,20.774c-0.603-0.467-0.801-0.868-1.003-1.536
			c5.478-2.604,5.478-8.152,5.478-21.581V34.589c0-6.544,0-8.414-1.869-8.414c-0.336,0-0.804,0.067-0.935,0.067l-1.47,0.396
			l-0.266-1.598c1.936-0.604,8.014-2.338,10.35-2.338V48.289z M177.072,11.342c0-2.007,1.536-3.742,3.741-3.742
			c2.203,0,3.744,1.734,3.744,3.742c0,1.937-1.541,3.739-3.744,3.739C178.608,15.082,177.072,13.279,177.072,11.342z"/>
		<path class="st1" d="M205.329,17.622c0-3.007,2.139-6.413,5.144-6.413c2.676,0,4.212,2.671,4.212,5.946
			c0,5.007-4.409,8.014-6.615,9.352C207.135,24.972,205.329,22.23,205.329,17.622z M234.726,57.638
			c0-4.075-1.738-7.952-5.945-11.493c1.538-2.068,4.14-5.075,4.14-11.422c0-6.815-4.808-10.89-8.748-10.89
			c-1.937,0-3.542,0.735-5.146,1.336v0.604c3.541,0.866,9.888,4.343,9.888,12.558c0,2.136-0.801,4.479-2.004,6.146
			c-5.144-4.073-13.495-11.556-17.57-16.232c0.266-0.268,10.022-6.082,10.022-12.694c0-3.741-2.608-6.546-6.749-6.546
			c-5.61,0-11.289,4.673-11.289,12.69c0,2.742,0.999,5.748,2.271,7.953c-3.209,2.136-10.154,6.077-10.154,13.225
			c0,7.48,7.349,12.225,15.23,12.225c9.554,0,13.831-3.338,16.636-5.345c3.273,2.474,7.15,5.547,8.552,7.885H234.726z
			 M199.585,40.136c0-5.077,2.739-7.347,5.077-8.751c6.215,7.282,12.895,12.228,18.772,16.836c-1.135,1.27-4.676,3.739-10.353,3.739
			C204.931,51.96,199.585,47.152,199.585,40.136z"/>
		<path class="st1" d="M240.336,52.626l1.67-0.399c1.002-0.201,1.67-0.467,2.072-0.803c0.665-0.664,1.136-4.944,1.538-11.021
			l1.067-16.838c0.269-4.54,0.736-11.756,0.736-13.558l1.804-0.603c2.002,3.477,17.235,32.268,19.306,35.944
			c2.137-3.409,17.105-31.937,18.373-35.34l1.736-0.603c0,0.535,0.468,8.019,0.935,16.838l0.6,11.556
			c0.27,5.678,0.735,12.157,1.271,13.159c0.332,0.667,1.337,1.069,2.539,1.27l2.002,0.399v1.472h-17.101v-1.472l2.604-0.399
			c2.873-0.336,3.142-1.401,3.142-4.479c0-7.413-1.138-21.441-1.138-25.718h-0.13c-1.14,2.942-7.953,16.035-14.567,29.064
			c-0.336,0.667-0.602,1.464-0.935,2.133l-1.868,0.871c-1.472-3.073-9.957-19.376-14.565-28.195
			c-0.672-1.267-1.27-2.535-1.805-3.873h-0.135c-0.197,3.807-1.136,22.716-1.136,24.784c0,3.947,0,5.077,3.141,5.413l2.675,0.399
			v1.472h-13.832V52.626z"/>
		<path class="st1" d="M314.895,38.733v11.287c-0.467,0.669-2.141,2.74-5.079,2.74c-3.806,0-6.211-2.27-6.211-6.08
			c0-6.277,6.547-7.947,10.354-7.947H314.895z M325.581,52.495c-0.266,0.131-0.533,0.265-1.201,0.265
			c-3.674,0-3.674-5.012-3.674-9.683v-9.554c0-6.817-1.606-10.821-9.219-10.821c-7.081,0-11.358,4.471-13.361,7.148
			c0.468,1.201,1.005,1.866,1.738,2.671h0.53c1.271-2.474,2.941-6.683,8.287-6.683c5.012,0,6.214,3.81,6.214,8.221v1.535
			c-5.883,1.737-17.439,4.342-17.439,13.026c0,3.676,3.34,6.479,8.287,6.479c5.211,0,7.682-1.401,9.82-2.802
			c0.665,1.401,1.868,2.802,5.277,2.802c2.804,0,4.209-1.068,5.079-1.669L325.581,52.495z"/>
		<path class="st1" d="M327.52,52.626l1.602-0.2c2.338-0.268,2.94-0.268,2.94-4.875V34.526c0-6.885,0-8.351-1.872-8.351
			c-0.533,0-1.068,0.264-1.603,0.4l-0.602,0.2l-0.531-1.606c3.339-1.199,7.816-2.467,9.687-2.467c0.268,1.131,0.47,2.532,0.47,4.34
			c1-1.071,3.873-4.34,7.28-4.34c2.07,0,4.208,1.467,5.077,2.002c-0.935,1.603-1.872,2.606-3.407,3.807
			c-0.937-0.336-4.545-1.469-5.48-1.469c-2.137,0-3.204,1.601-3.204,2.606v17.904c0,4.608,0.535,4.608,4.075,4.875l1.535,0.2v1.472
			H327.52V52.626z"/>
		<path class="st1" d="M349.029,52.626l1.606-0.2c2.338-0.268,2.94-0.268,2.94-4.875V16.688c0-5.282,0-8.355-2.406-8.355
			c-0.337,0-0.804,0.068-0.937,0.068l-0.998,0.136l-0.205-1.471C351.169,6.6,356.58,6,359.386,6v30.858h1.135
			c2.404,0,4.142-0.798,6.012-2.868l2.406-2.805c2.271-2.606,3.607-4.143,3.607-5.08c0-0.667-1.001-0.735-2.069-0.803l-2.137-0.134
			v-1.467h13.359v1.467l-1.269,0.134c-2.404,0.268-3.339,0.535-5.277,2.606l-2.74,3.005c-1.868,2.007-3.474,4.08-4.341,4.881
			c0.803,1.338,2.338,3.807,4.341,6.55l3.473,4.81c3.676,5.143,4.677,5.474,6.613,5.474v1.472h-3.739c-3.204,0-3.809-0.333-5.012-1
			c-1.334-0.74-3.608-3.608-5.676-6.816l-2.541-3.874c-1.203-1.805-2.27-3.343-4.407-3.343h-1.737v8.486
			c0,4.608,0.533,4.608,3.004,4.875l1.538,0.2v1.472h-14.899V52.626z"/>
		<path class="st1" d="M384.173,52.626l1.602-0.2c2.335-0.268,2.939-0.598,2.939-4.875V34.589c0-6.544,0-8.414-1.872-8.414
			c-0.332,0-0.8,0.067-0.935,0.067l-1.469,0.396l-0.264-1.598c1.936-0.604,8.015-2.338,10.353-2.338v4.206
			c1.535-1.401,5.146-4.206,10.222-4.206c10.421,0,10.421,7.214,10.421,14.897v9.953c0,4.277,0.533,4.608,3.007,4.875l1.536,0.2
			v1.472h-14.9v-1.472l1.606-0.2c2.341-0.268,2.941-0.598,2.941-4.875v-8.953c0-6.279,0-12.761-7.952-12.761
			c-3.54,0-5.677,2.07-6.882,3.608v18.106c0,4.277,0.534,4.608,3.005,4.875l1.538,0.2v1.472h-14.895V52.626z"/>
		<path class="st1" d="M439.084,38.733v11.287c-0.467,0.669-2.135,2.74-5.076,2.74c-3.809,0-6.215-2.27-6.215-6.08
			c0-6.277,6.55-7.947,10.357-7.947H439.084z M449.775,52.495c-0.268,0.131-0.533,0.265-1.199,0.265
			c-3.679,0-3.679-5.012-3.679-9.683v-9.554c0-6.817-1.603-10.821-9.218-10.821c-7.082,0-11.359,4.471-13.362,7.148
			c0.467,1.201,1.004,1.866,1.737,2.671h0.533c1.271-2.474,2.942-6.683,8.284-6.683c5.012,0,6.214,3.81,6.214,8.221v1.535
			c-5.878,1.737-17.437,4.342-17.437,13.026c0,3.676,3.34,6.479,8.287,6.479c5.211,0,7.679-1.401,9.819-2.802
			c0.667,1.401,1.868,2.802,5.277,2.802c2.805,0,4.212-1.068,5.08-1.669L449.775,52.495z"/>
		<path class="st1" d="M474.291,50.49c-0.8,0.467-3.275,1.47-5.278,1.47c-6.749,0-12.025-5.542-12.025-14.031
			c0-8.216,4.411-12.889,10.625-12.889c2.873,0,5.075,0.863,6.678,2.333V50.49z M484.578,51.157l-1.203,0.2
			c-0.269,0.068-0.804,0.068-1.065,0.068c-1.803,0-2.207-1.534-2.207-5.075V6c-2.805,0-8.218,0.6-10.352,1.067l0.2,1.471
			l0.997-0.136c0.142,0,0.604-0.068,0.937-0.068c2.406,0,2.406,3.073,2.406,8.355V23.3c-1.467-0.47-3.201-0.598-4.812-0.598
			c-8.016,0-18.636,4.807-18.636,17.565c0,10.625,7.883,14.831,14.828,14.831c4.61,0,7.484-1.937,9.021-2.74
			c0.401,0.869,0.803,2.002,1.267,2.74c2.27-0.265,5.945-1,9.019-2.404L484.578,51.157z"/>
		<path class="st1" d="M504.753,32.719c0-3.006-2.136-7.816-6.481-7.816c-2.537,0-4.274,1.803-4.274,4.744
			c0,7.615,14.832,5.411,14.832,16.098c0,6.345-5.217,9.352-11.555,9.352c-4.345,0-6.681-1.136-8.483-1.937
			c-1.004-3.004-1.273-6.347-1.273-8.953h1.803c1.338,4.348,3.608,8.686,8.951,8.686c3.01,0,4.744-2.606,4.744-4.942
			c0-9.086-14.83-5.882-14.83-16.766c0-5.478,4.879-8.484,10.689-8.484c3.542,0,5.61,1.068,7.082,1.934
			c0.672,2.406,0.871,4.542,0.871,8.083H504.753z"/>
		<path class="st1" d="M510.3,52.626l1.603-0.2c2.338-0.268,2.939-0.803,2.939-4.875V16.688c0-5.282,0-8.355-2.405-8.355
			c-0.332,0-0.802,0.068-0.938,0.068l-1.002,0.136L510.3,7.067C512.438,6.6,517.849,6,520.655,6v20.774
			c1.937-1.606,4.941-4.073,10.488-4.073c9.752,0,10.554,6.208,10.554,13.49v11.359c0,4.073,0.535,4.608,3.01,4.875l1.533,0.2v1.472
			h-14.897v-1.472l1.606-0.2c2.335-0.268,2.938-0.803,2.938-4.875V35.326c0-5.543-2.268-9.488-7.884-9.488
			c-3.676,0-6.145,2.338-7.347,3.409v18.305c0,4.073,0.535,4.608,3.004,4.875l1.538,0.2v1.472H510.3V52.626z"/>
		<path class="st1" d="M553.056,38.666c0-6.414,2.406-13.626,9.352-13.626c7.814,0,10.819,6.878,10.819,14.826
			c0,7.082-3.073,12.894-9.15,12.894C556.529,52.76,553.056,46.082,553.056,38.666z M557.064,17.021
			c1.738,0,3.272-1.535,3.272-3.277c0-1.735-1.534-3.268-3.272-3.268c-1.801,0-3.273,1.534-3.273,3.268
			C553.791,15.486,555.263,17.021,557.064,17.021z M569.221,17.021c1.804,0,3.271-1.535,3.271-3.277
			c0-1.735-1.467-3.268-3.271-3.268c-1.736,0-3.273,1.534-3.273,3.268C565.948,15.486,567.485,17.021,569.221,17.021z
			 M562.943,55.098c8.483,0,16.434-5.476,16.434-17.032c0-9.221-6.55-15.364-16.1-15.364c-8.221,0-16.371,5.673-16.371,16.768
			C546.907,49.955,554.46,55.098,562.943,55.098z"/>
		<path class="st1" d="M588.663,33.186c0-4.877,2.602-8.146,6.748-8.146c3.47,0,6.749,2.201,6.749,8.615
			c0,3.944-2.345,7.62-6.616,7.62C591.6,41.275,588.663,38.134,588.663,33.186z M596.476,49.086c-4.543,0-7.749-0.331-7.749-2.942
			c0-1.669,2.139-2.401,3.474-3.003c1.002,0.266,2.141,0.335,2.608,0.335c7.679,0,13.158-3.743,13.158-10.757
			c0-2.869-1.204-4.811-1.802-5.478c1.802-0.199,4.676-0.467,6.281-0.803v-1.136c-3.346-0.598-12.295-2.6-16.437-2.6
			c-5.942,0-13.498,2.532-13.498,11.152c0,5.879,4.147,7.686,7.016,8.62c-2.072,1.401-6.01,2.74-6.01,5.413
			c0,2.873,3.54,4.54,5.411,5.143v0.131c-2.741,0.869-7.547,3.007-7.547,7.481c0,5.615,5.607,9.155,12.755,9.155
			c10.158,0,17.706-4.477,17.706-11.96c0-7.612-8.221-8.751-11.293-8.751H596.476z M587.193,59.108c0-4.075,3.273-5.61,8.752-5.61
			c5.677,0,10.688,1.404,10.688,6.08c0,4.206-3.876,8.014-9.822,8.014C590.801,67.591,587.193,63.584,587.193,59.108z"/>
		<path class="st1" d="M631.488,32.719c0-3.006-2.142-7.816-6.485-7.816c-2.536,0-4.271,1.803-4.271,4.744
			c0,7.615,14.823,5.411,14.823,16.098c0,6.345-5.207,9.352-11.551,9.352c-4.343,0-6.681-1.136-8.489-1.937
			c-1.002-3.004-1.265-6.347-1.265-8.953h1.8c1.336,4.348,3.611,8.686,8.952,8.686c3.009,0,4.742-2.606,4.742-4.942
			c0-9.086-14.827-5.882-14.827-16.766c0-5.478,4.875-8.484,10.688-8.484c3.541,0,5.613,1.068,7.081,1.934
			c0.667,2.406,0.866,4.542,0.866,8.083H631.488z"/>
		<path class="st1" d="M637.16,52.626l1.604-0.2c2.338-0.268,2.942-0.268,2.942-4.875V16.688c0-5.282,0-8.355-2.406-8.355
			c-0.332,0-0.803,0.068-0.934,0.068l-1.002,0.136l-0.203-1.471C639.3,6.6,644.71,6,647.521,6v30.858h1.13
			c2.41,0,4.147-0.798,6.018-2.868l2.4-2.805c2.275-2.606,3.608-4.143,3.608-5.08c0-0.667-1.001-0.735-2.07-0.803l-2.136-0.134
			v-1.467h13.363v1.467l-1.27,0.134c-2.406,0.268-3.34,0.535-5.28,2.606l-2.738,3.005c-1.87,2.007-3.477,4.08-4.343,4.881
			c0.803,1.338,2.339,3.807,4.343,6.55l3.472,4.81c3.676,5.143,4.677,5.474,6.615,5.474v1.472h-3.741c-3.209,0-3.807-0.333-5.009-1
			c-1.337-0.74-3.605-3.608-5.68-6.816l-2.543-3.874c-1.198-1.805-2.27-3.343-4.406-3.343h-1.733v8.486
			c0,4.608,0.535,4.608,3.004,4.875l1.534,0.2v1.472H637.16V52.626z"/>
		<path class="st1" d="M674.845,38.666c0-6.414,2.404-13.626,9.348-13.626c7.818,0,10.824,6.878,10.824,14.826
			c0,7.082-3.074,12.894-9.151,12.894C678.315,52.76,674.845,46.082,674.845,38.666z M684.728,55.098
			c8.485,0,16.435-5.476,16.435-17.032c0-9.221-6.546-15.364-16.1-15.364c-8.219,0-16.37,5.673-16.37,16.768
			C668.694,49.955,676.242,55.098,684.728,55.098z"/>
		<path class="st1" d="M701.163,52.626l1.602-0.2c2.338-0.268,2.936-0.268,2.936-4.875V16.688c0-5.282,0-8.355-2.4-8.355
			c-0.336,0-0.804,0.068-0.941,0.068l-1.002,0.136l-0.195-1.471C703.302,6.6,708.711,6,711.517,6v41.551
			c0,4.608,0.535,4.608,3.006,4.875l1.536,0.2v1.472h-14.895V52.626z"/>
		<path class="st1" d="M736.366,38.733v11.287c-0.467,0.669-2.135,2.74-5.076,2.74c-3.805,0-6.211-2.27-6.211-6.08
			c0-6.277,6.546-7.947,10.353-7.947H736.366z M747.056,52.495c-0.268,0.131-0.533,0.265-1.202,0.265
			c-3.676,0-3.676-5.012-3.676-9.683v-9.554c0-6.817-1.601-10.821-9.215-10.821c-7.085,0-11.359,4.471-13.36,7.148
			c0.467,1.201,1.002,1.866,1.737,2.671h0.531c1.271-2.474,2.936-6.683,8.281-6.683c5.016,0,6.214,3.81,6.214,8.221v1.535
			c-5.878,1.737-17.434,4.342-17.434,13.026c0,3.676,3.338,6.479,8.285,6.479c5.21,0,7.68-1.401,9.819-2.802
			c0.667,1.401,1.868,2.802,5.281,2.802c2.801,0,4.206-1.068,5.076-1.669L747.056,52.495z"/>
		<path class="st1" d="M749.195,52.626l1.601-0.2c2.338-0.268,2.942-0.598,2.942-4.875V34.589c0-6.544,0-8.414-1.87-8.414
			c-0.335,0-0.804,0.067-0.934,0.067l-1.476,0.396l-0.262-1.598c1.936-0.604,8.014-2.338,10.353-2.338v4.206
			c1.54-1.401,5.148-4.206,10.222-4.206c10.425,0,10.425,7.214,10.425,14.897v9.953c0,4.277,0.53,4.608,3.004,4.875l1.536,0.2v1.472
			h-14.898v-1.472l1.607-0.2c2.332-0.268,2.935-0.598,2.935-4.875v-8.953c0-6.279,0-12.761-7.951-12.761
			c-3.541,0-5.676,2.07-6.882,3.608v18.106c0,4.277,0.534,4.608,3.005,4.875l1.542,0.2v1.472h-14.899V52.626z"/>
	</g>
	<g>
		<path class="st1" d="M100.817,85.285l-1.363-0.827c-0.855-0.522-1.464-1.037-1.825-1.542c-0.362-0.505-0.543-1.086-0.543-1.744
			c0-0.987,0.343-1.788,1.027-2.404c0.684-0.617,1.573-0.924,2.667-0.924c1.046,0,2.006,0.294,2.879,0.882v2.035
			c-0.903-0.868-1.875-1.303-2.915-1.303c-0.586,0-1.067,0.136-1.444,0.407c-0.377,0.27-0.565,0.617-0.565,1.04
			c0,0.375,0.138,0.727,0.416,1.053c0.278,0.328,0.724,0.672,1.338,1.031l1.37,0.812c1.528,0.912,2.292,2.074,2.292,3.485
			c0,1.005-0.337,1.82-1.009,2.448c-0.673,0.628-1.547,0.942-2.623,0.942c-1.238,0-2.364-0.38-3.38-1.141v-2.278
			c0.968,1.227,2.089,1.841,3.363,1.841c0.562,0,1.029-0.157,1.404-0.47c0.373-0.312,0.56-0.703,0.56-1.176
			C102.467,86.694,101.917,85.97,100.817,85.285z"/>
		<path class="st1" d="M122.506,77.99h10.465v1.595h-4.367v10.95h-1.803v-10.95h-4.295V77.99z"/>
		<path class="st1" d="M157.069,77.827c1.935,0,3.546,0.614,4.834,1.838c1.288,1.227,1.932,2.762,1.932,4.609
			c0,1.847-0.651,3.377-1.95,4.587c-1.299,1.212-2.938,1.817-4.915,1.817c-1.888,0-3.46-0.605-4.719-1.817
			c-1.258-1.21-1.886-2.726-1.886-4.55c0-1.871,0.633-3.419,1.9-4.646C153.532,78.441,155.133,77.827,157.069,77.827z
			 M157.141,79.53c-1.433,0-2.612,0.449-3.534,1.346c-0.923,0.897-1.384,2.041-1.384,3.435c0,1.351,0.462,2.474,1.388,3.372
			c0.926,0.897,2.085,1.345,3.477,1.345c1.397,0,2.563-0.458,3.498-1.372s1.403-2.053,1.403-3.417c0-1.326-0.468-2.443-1.403-3.349
			C159.65,79.984,158.502,79.53,157.141,79.53z"/>
		<path class="st1" d="M194.285,87.629v1.972c-1.315,0.719-2.834,1.077-4.555,1.077c-1.399,0-2.585-0.282-3.561-0.844
			c-0.974-0.562-1.745-1.336-2.314-2.322c-0.567-0.987-0.851-2.055-0.851-3.201c0-1.824,0.649-3.356,1.95-4.6
			c1.301-1.244,2.905-1.866,4.812-1.866c1.315,0,2.776,0.344,4.385,1.031v1.929c-1.464-0.837-2.896-1.257-4.296-1.257
			c-1.435,0-2.626,0.454-3.574,1.359c-0.947,0.905-1.421,2.04-1.421,3.403c0,1.375,0.466,2.505,1.399,3.39
			c0.933,0.884,2.125,1.326,3.579,1.326C191.355,89.028,192.838,88.562,194.285,87.629z"/>
		<path class="st1" d="M221.024,78.007h2.241l-5.434,5.945l6.77,6.584h-2.448l-6.403-6.189v6.189h-1.794V78.007h1.794v5.729
			L221.024,78.007z"/>
		<path class="st1" d="M252.262,78.007h1.792v12.528h-1.792v-5.453h-7.04v5.453h-1.792V78.007h1.792v5.417h7.04V78.007z"/>
		<path class="st1" d="M280.414,77.827c1.934,0,3.545,0.614,4.833,1.838c1.287,1.227,1.93,2.762,1.93,4.609
			c0,1.847-0.649,3.377-1.948,4.587c-1.299,1.212-2.938,1.817-4.915,1.817c-1.888,0-3.461-0.605-4.719-1.817
			c-1.257-1.21-1.885-2.726-1.885-4.55c0-1.871,0.632-3.419,1.9-4.646C276.875,78.441,278.477,77.827,280.414,77.827z
			 M280.485,79.53c-1.434,0-2.612,0.449-3.536,1.346c-0.921,0.897-1.383,2.041-1.383,3.435c0,1.351,0.462,2.474,1.388,3.372
			c0.926,0.897,2.085,1.345,3.477,1.345c1.396,0,2.562-0.458,3.498-1.372s1.403-2.053,1.403-3.417c0-1.326-0.467-2.443-1.403-3.349
			C282.993,79.984,281.845,79.53,280.485,79.53z"/>
		<path class="st1" d="M306.831,78.007h1.794v10.895h5.642v1.634h-7.435V78.007z"/>
		<path class="st1" d="M343.245,78.007h1.677v12.528h-1.803v-9.748l-3.851,4.841h-0.331l-3.898-4.841v9.748h-1.794V78.007h1.698
			l4.163,5.144L343.245,78.007z"/>
		<path class="st1" d="M394.389,84.365h4.206v5.31c-1.544,0.669-3.073,1.004-4.592,1.004c-2.074,0-3.731-0.605-4.973-1.817
			c-1.24-1.21-1.862-2.703-1.862-4.479c0-1.871,0.644-3.427,1.929-4.671c1.286-1.244,2.897-1.866,4.833-1.866
			c0.705,0,1.376,0.076,2.01,0.228c0.632,0.152,1.435,0.433,2.404,0.838v1.83c-1.496-0.867-2.98-1.302-4.448-1.302
			c-1.371,0-2.524,0.467-3.462,1.4c-0.939,0.933-1.408,2.077-1.408,3.434c0,1.424,0.468,2.586,1.408,3.49
			c0.938,0.903,2.146,1.354,3.622,1.354c0.718,0,1.574-0.165,2.574-0.493l0.169-0.055v-2.61h-2.411V84.365z"/>
		<path class="st1" d="M424.807,77.827c1.935,0,3.548,0.614,4.835,1.838c1.288,1.227,1.931,2.762,1.931,4.609
			c0,1.847-0.649,3.377-1.95,4.587c-1.299,1.212-2.938,1.817-4.915,1.817c-1.888,0-3.461-0.605-4.719-1.817
			c-1.257-1.21-1.887-2.726-1.887-4.55c0-1.871,0.635-3.419,1.901-4.646C421.27,78.441,422.871,77.827,424.807,77.827z
			 M424.878,79.53c-1.433,0-2.61,0.449-3.533,1.346c-0.924,0.897-1.384,2.041-1.384,3.435c0,1.351,0.462,2.474,1.389,3.372
			c0.924,0.897,2.085,1.345,3.474,1.345c1.399,0,2.565-0.458,3.5-1.372c0.934-0.915,1.401-2.053,1.401-3.417
			c0-1.326-0.467-2.443-1.401-3.349C427.389,79.984,426.241,79.53,424.878,79.53z M422.999,75.235c0.233,0,0.437,0.085,0.606,0.252
			c0.17,0.168,0.256,0.371,0.256,0.61c0,0.24-0.08,0.441-0.241,0.605c-0.163,0.165-0.358,0.247-0.592,0.247
			c-0.24,0-0.444-0.085-0.61-0.255c-0.168-0.17-0.252-0.373-0.252-0.606c0-0.239,0.081-0.441,0.248-0.606
			C422.577,75.319,422.773,75.235,422.999,75.235z M426.452,75.235c0.234,0,0.436,0.085,0.605,0.252
			c0.171,0.168,0.257,0.371,0.257,0.61c0,0.24-0.083,0.441-0.243,0.605c-0.161,0.165-0.359,0.247-0.593,0.247
			c-0.237,0-0.442-0.085-0.609-0.255c-0.167-0.17-0.251-0.373-0.251-0.606c0-0.239,0.083-0.441,0.245-0.606
			C426.029,75.319,426.225,75.235,426.452,75.235z"/>
		<path class="st1" d="M450.162,77.99h10.465v1.595h-4.368v10.95h-1.803v-10.95h-4.294V77.99z"/>
		<path class="st1" d="M479.767,78.007h7.102v1.597h-5.307v3.821h5.127v1.603h-5.127v3.894h5.479v1.595h-7.274V78.007z"/>
		<path class="st1" d="M510.639,90.535h-4.242V78.007h3.281c1.035,0,1.842,0.139,2.422,0.416c0.58,0.279,1.023,0.661,1.328,1.149
			c0.304,0.487,0.458,1.05,0.458,1.69c0,1.231-0.638,2.114-1.91,2.645c0.915,0.173,1.643,0.551,2.183,1.131
			c0.541,0.58,0.811,1.273,0.811,2.081c0,0.639-0.164,1.21-0.493,1.712c-0.328,0.502-0.811,0.912-1.447,1.228
			C512.392,90.375,511.595,90.535,510.639,90.535z M509.733,79.604h-1.543v3.766h1.193c0.957,0,1.636-0.182,2.04-0.546
			c0.404-0.365,0.605-0.838,0.605-1.418C512.028,80.205,511.264,79.604,509.733,79.604z M509.867,84.965h-1.677v3.974h1.767
			c0.98,0,1.645-0.077,1.994-0.23c0.35-0.152,0.631-0.388,0.844-0.712c0.211-0.323,0.318-0.67,0.318-1.04
			c0-0.383-0.11-0.732-0.335-1.05c-0.224-0.316-0.543-0.552-0.956-0.708C511.409,85.043,510.758,84.965,509.867,84.965z"/>
		<path class="st1" d="M540.331,77.827c1.935,0,3.548,0.614,4.835,1.838c1.288,1.227,1.931,2.762,1.931,4.609
			c0,1.847-0.649,3.377-1.95,4.587c-1.299,1.212-2.938,1.817-4.915,1.817c-1.889,0-3.461-0.605-4.719-1.817
			c-1.257-1.21-1.887-2.726-1.887-4.55c0-1.871,0.635-3.419,1.901-4.646C536.794,78.441,538.394,77.827,540.331,77.827z
			 M540.402,79.53c-1.433,0-2.609,0.449-3.533,1.346c-0.924,0.897-1.384,2.041-1.384,3.435c0,1.351,0.462,2.474,1.388,3.372
			c0.925,0.897,2.085,1.345,3.475,1.345c1.399,0,2.564-0.458,3.5-1.372c0.934-0.915,1.401-2.053,1.401-3.417
			c0-1.326-0.467-2.443-1.401-3.349C542.911,79.984,541.765,79.53,540.402,79.53z"/>
		<path class="st1" d="M566.806,90.535V78.007h3.138c1.267,0,2.272,0.314,3.016,0.942c0.747,0.627,1.117,1.476,1.117,2.547
			c0,0.73-0.182,1.359-0.546,1.892c-0.365,0.531-0.887,0.929-1.569,1.193c0.4,0.264,0.793,0.622,1.176,1.076
			c0.382,0.455,0.92,1.246,1.612,2.376c0.437,0.712,0.787,1.246,1.051,1.606l0.662,0.897h-2.133l-0.548-0.827
			c-0.017-0.029-0.052-0.081-0.106-0.152l-0.349-0.493l-0.556-0.916l-0.6-0.977c-0.37-0.514-0.71-0.925-1.017-1.229
			c-0.308-0.303-0.586-0.522-0.836-0.656c-0.248-0.135-0.665-0.202-1.253-0.202h-0.467v5.453H566.806z M569.136,79.53h-0.538v3.956
			h0.682c0.909,0,1.532-0.077,1.87-0.233c0.338-0.155,0.602-0.39,0.789-0.703c0.189-0.314,0.283-0.67,0.283-1.072
			c0-0.394-0.105-0.752-0.314-1.072c-0.209-0.319-0.505-0.545-0.883-0.676C570.645,79.598,570.016,79.53,569.136,79.53z"/>
		<path class="st1" d="M602.062,84.365h4.205v5.31c-1.542,0.669-3.073,1.004-4.591,1.004c-2.076,0-3.733-0.605-4.972-1.817
			c-1.241-1.21-1.862-2.703-1.862-4.479c0-1.871,0.644-3.427,1.929-4.671c1.286-1.244,2.897-1.866,4.833-1.866
			c0.705,0,1.375,0.076,2.009,0.228c0.634,0.152,1.435,0.433,2.404,0.838v1.83c-1.494-0.867-2.977-1.302-4.448-1.302
			c-1.368,0-2.523,0.467-3.461,1.4c-0.939,0.933-1.409,2.077-1.409,3.434c0,1.424,0.47,2.586,1.409,3.49
			c0.938,0.903,2.145,1.354,3.621,1.354c0.718,0,1.577-0.165,2.576-0.493l0.17-0.055v-2.61h-2.413V84.365z"/>
		<path class="st1" d="M658.846,78.007h1.677v12.528h-1.803v-9.748l-3.852,4.841h-0.331l-3.898-4.841v9.748h-1.792V78.007h1.698
			l4.162,5.144L658.846,78.007z"/>
		<path class="st1" d="M684.669,77.935h1.261l5.618,12.601h-1.835l-1.67-3.713h-5.345l-1.564,3.713h-1.843L684.669,77.935z
			 M687.305,85.227l-2.022-4.54l-1.873,4.54H687.305z"/>
		<path class="st1" d="M710.369,78.007h1.793v10.895h5.64v1.634h-7.434V78.007z"/>
		<path class="st1" d="M746.781,78.007h1.677v12.528h-1.801v-9.748l-3.853,4.841h-0.331l-3.897-4.841v9.748h-1.794V78.007h1.699
			l4.162,5.144L746.781,78.007z"/>
		<path class="st1" d="M774.752,77.827c1.934,0,3.548,0.614,4.833,1.838c1.288,1.227,1.933,2.762,1.933,4.609
			c0,1.847-0.649,3.377-1.951,4.587c-1.299,1.212-2.936,1.817-4.915,1.817c-1.888,0-3.461-0.605-4.718-1.817
			c-1.257-1.21-1.887-2.726-1.887-4.55c0-1.871,0.634-3.419,1.901-4.646C771.214,78.441,772.815,77.827,774.752,77.827z
			 M774.822,79.53c-1.434,0-2.611,0.449-3.533,1.346c-0.924,0.897-1.384,2.041-1.384,3.435c0,1.351,0.462,2.474,1.388,3.372
			c0.925,0.897,2.085,1.345,3.476,1.345c1.397,0,2.564-0.458,3.499-1.372c0.934-0.915,1.401-2.053,1.401-3.417
			c0-1.326-0.467-2.443-1.401-3.349C777.332,79.984,776.184,79.53,774.822,79.53z M772.943,75.235c0.234,0,0.436,0.085,0.606,0.252
			c0.171,0.168,0.255,0.371,0.255,0.61c0,0.24-0.08,0.441-0.241,0.605c-0.161,0.165-0.358,0.247-0.592,0.247
			c-0.24,0-0.442-0.085-0.609-0.255c-0.169-0.17-0.253-0.373-0.253-0.606c0-0.239,0.083-0.441,0.248-0.606
			C772.521,75.319,772.718,75.235,772.943,75.235z M776.397,75.235c0.234,0,0.434,0.085,0.605,0.252
			c0.169,0.168,0.256,0.371,0.256,0.61c0,0.24-0.081,0.441-0.243,0.605c-0.16,0.165-0.358,0.247-0.592,0.247
			c-0.239,0-0.442-0.085-0.609-0.255c-0.168-0.17-0.251-0.373-0.251-0.606c0-0.239,0.081-0.441,0.245-0.606
			C775.973,75.319,776.17,75.235,776.397,75.235z"/>
	</g>
</g>
</svg>
