<?xml version="1.0" encoding="utf-8"?>
<!-- Generator: Adobe Illustrator 18.1.1, SVG Export Plug-In . SVG Version: 6.00 Build 0)  -->
<!DOCTYPE svg PUBLIC "-//W3C//DTD SVG 1.1//EN" "http://www.w3.org/Graphics/SVG/1.1/DTD/svg11.dtd">
<svg version="1.1" id="Layer_1" xmlns="http://www.w3.org/2000/svg" xmlns:xlink="http://www.w3.org/1999/xlink" x="0px" y="0px"
	 viewBox="0 0 736 100" enable-background="new 0 0 736 100" xml:space="preserve">
<g>
	<polyline fill-rule="evenodd" clip-rule="evenodd" fill="#EE9C2D" points="139.205,3.513 179.41,3.513 179.41,15.71 152.694,15.71 
		152.694,42.26 175.972,42.26 175.972,54.458 152.694,54.458 152.694,81.016 179.41,81.016 179.41,93.974 139.205,93.974 
		139.205,3.513 	"/>
	<path fill-rule="evenodd" clip-rule="evenodd" fill="#EE9C2D" d="M232.179,75.296c0,2.824-0.542,5.526-1.618,8.094
		c-1.082,2.568-2.571,4.812-4.468,6.742c-1.9,1.925-4.12,3.466-6.667,4.621c-2.544,1.156-5.286,1.734-8.219,1.734
		c-2.502,0-5.049-0.342-7.638-1.025c-2.589-0.686-4.917-1.864-6.991-3.533c-2.071-1.669-3.776-3.872-5.112-6.614
		c-1.34-2.742-2.005-6.207-2.005-10.403V24.57c0-2.995,0.515-5.777,1.552-8.345c1.037-2.571,2.502-4.792,4.402-6.682
		c1.897-1.882,4.162-3.357,6.796-4.427c2.631-1.068,5.544-1.603,8.738-1.603c3.02,0,5.825,0.535,8.414,1.603
		c2.589,1.071,4.83,2.57,6.73,4.493c1.897,1.928,3.386,4.239,4.468,6.935c1.076,2.701,1.618,5.631,1.618,8.797v5.136h-13.206v-4.365
		c0-2.57-0.734-4.794-2.199-6.679c-1.469-1.882-3.452-2.824-5.957-2.824c-3.278,0-5.457,1.008-6.535,3.018
		c-1.082,2.013-1.618,4.561-1.618,7.638v46.752c0,2.651,0.581,4.877,1.747,6.677c1.166,1.794,3.257,2.696,6.278,2.696
		c0.863,0,1.792-0.151,2.784-0.45c0.992-0.299,1.897-0.791,2.718-1.477c0.821-0.686,1.489-1.626,2.008-2.827
		c0.518-1.196,0.776-2.696,0.776-4.496v-4.493h13.206V75.296"/>
	<path fill-rule="evenodd" clip-rule="evenodd" fill="#737572" d="M287.462,73.06c0,2.94-0.56,5.669-1.681,8.189
		c-1.124,2.52-2.655,4.724-4.596,6.614c-1.942,1.892-4.204,3.385-6.796,4.472c-2.589,1.093-5.352,1.639-8.282,1.639
		c-2.936,0-5.696-0.545-8.285-1.639c-2.589-1.088-4.854-2.58-6.796-4.472c-1.942-1.89-3.476-4.094-4.596-6.614
		c-1.121-2.52-1.684-5.25-1.684-8.189V3.513h13.206v68.288c0,3.191,0.776,5.543,2.331,7.053c1.552,1.515,3.494,2.269,5.825,2.269
		c2.328,0,4.27-0.754,5.825-2.269c1.552-1.51,2.328-3.862,2.328-7.053V3.513h13.203V73.06"/>
	<polyline fill-rule="evenodd" clip-rule="evenodd" fill="#737572" points="309.911,15.71 295,15.71 295,3.513 337.718,3.513 
		337.718,15.71 322.804,15.71 322.804,93.974 309.911,93.974 309.911,15.71 	"/>
	<path fill-rule="evenodd" clip-rule="evenodd" fill="#737572" d="M360.975,81.016h5.696c2.673,0,4.767-0.382,6.278-1.144
		c1.507-0.761,2.652-1.821,3.428-3.176c0.779-1.357,1.253-2.965,1.426-4.83c0.171-1.862,0.258-3.894,0.258-6.096
		c0-2.289-0.129-4.279-0.386-5.975c-0.261-1.693-0.8-3.111-1.618-4.254c-0.824-1.144-1.966-2.013-3.431-2.606
		c-1.468-0.59-3.41-0.89-5.825-0.89h-5.825V81.016z M360.975,40.612h5.954c4.402,0,7.357-1.08,8.867-3.241
		c1.51-2.159,2.265-5.315,2.265-9.464c0-4.068-0.842-7.116-2.523-9.152c-1.684-2.03-4.725-3.045-9.127-3.045h-5.435V40.612z
		 M347.769,3.513h19.288c4.228,0,7.833,0.633,10.808,1.905c2.978,1.271,5.415,2.965,7.314,5.081
		c1.897,2.121,3.257,4.556,4.078,7.307c0.818,2.754,1.229,5.611,1.229,8.576v3.299c0,2.46-0.192,4.535-0.581,6.227
		c-0.39,1.699-0.971,3.176-1.747,4.448c-0.776,1.274-1.729,2.394-2.85,3.367c-1.121,0.978-2.415,1.887-3.884,2.732
		c3.107,1.442,5.394,3.58,6.862,6.418c1.465,2.839,2.199,6.626,2.199,11.37v5.086c0,7.958-1.963,14.057-5.888,18.293
		c-3.929,4.234-10.209,6.353-18.836,6.353h-17.994V3.513z"/>
	<rect x="405.564" y="3.513" fill-rule="evenodd" clip-rule="evenodd" fill="#737572" width="12.564" height="90.462"/>
	<polyline fill-rule="evenodd" clip-rule="evenodd" fill="#737572" points="435.718,3.513 449.207,3.513 449.207,81.016 
		475.923,81.016 475.923,93.974 435.718,93.974 435.718,3.513 	"/>
	<path fill-rule="evenodd" clip-rule="evenodd" fill="#737572" d="M499.177,81.777h6.086c3.71,0,6.341-0.907,7.896-2.731
		c1.552-1.822,2.331-4.679,2.331-8.576V26.89c0-3.561-0.734-6.31-2.202-8.259c-1.469-1.948-4.141-2.92-8.025-2.92h-6.086V81.777z
		 M485.974,3.513h19.546c7.509,0,13.248,2.053,17.218,6.161c3.968,4.108,5.954,9.848,5.954,17.216v42.308
		c0,8.471-2.094,14.718-6.278,18.741c-4.186,4.023-10.206,6.036-18.057,6.036h-18.384V3.513z"/>
	<polyline fill-rule="evenodd" clip-rule="evenodd" fill="#737572" points="541.256,3.513 553.708,3.513 573.274,58.016 
		573.527,58.016 573.527,3.513 586.487,3.513 586.487,93.974 574.291,93.974 554.47,39.594 554.217,39.594 554.217,93.974 
		541.256,93.974 541.256,3.513 	"/>
	<rect x="604.077" y="3.513" fill-rule="evenodd" clip-rule="evenodd" fill="#737572" width="12.564" height="90.462"/>
	<polyline fill-rule="evenodd" clip-rule="evenodd" fill="#737572" points="631.718,3.513 644.17,3.513 663.737,58.016 
		663.99,58.016 663.99,3.513 676.949,3.513 676.949,93.974 664.752,93.974 644.932,39.594 644.679,39.594 644.679,93.974 
		631.718,93.974 631.718,3.513 	"/>
	<path fill-rule="evenodd" clip-rule="evenodd" fill="#737572" d="M689.513,25.857c0-3.682,0.661-6.935,1.984-9.76
		c1.323-2.827,3.062-5.159,5.223-7.001c2.162-1.837,4.583-3.229,7.274-4.174c2.688-0.942,5.401-1.41,8.135-1.41
		c2.734,0,5.443,0.467,8.135,1.41c2.688,0.945,5.112,2.337,7.274,4.174c2.158,1.842,3.9,4.174,5.223,7.001
		c1.322,2.824,1.984,6.078,1.984,9.76v4.621h-13.489v-4.621c0-3.166-0.906-5.501-2.712-6.999c-1.81-1.5-3.946-2.249-6.414-2.249
		c-2.471,0-4.607,0.749-6.414,2.249c-1.809,1.498-2.712,3.832-2.712,6.999v48.283c0,3.169,0.903,5.504,2.712,7.001
		c1.807,1.5,3.943,2.249,6.414,2.249c2.468,0,4.604-0.749,6.414-2.249c1.806-1.498,2.712-3.832,2.712-7.001V56.933h-10.712V45.374
		h24.201v28.767c0,3.769-0.661,7.046-1.984,9.826c-1.323,2.782-3.065,5.096-5.223,6.935c-2.162,1.844-4.586,3.231-7.274,4.174
		c-2.691,0.94-5.401,1.412-8.135,1.412c-2.734,0-5.447-0.472-8.135-1.412c-2.691-0.942-5.112-2.329-7.274-4.174
		c-2.161-1.84-3.9-4.154-5.223-6.935c-1.322-2.78-1.984-6.056-1.984-9.826V25.857"/>
	<path fill-rule="evenodd" clip-rule="evenodd" fill="#EE9C2D" d="M53.769,1v16.957C70.739,19.225,84.16,33.096,84.16,50
		S70.739,80.772,53.769,82.043V99c26.544-1.302,47.744-22.746,47.744-49S80.314,2.299,53.769,1"/>
	<path fill-rule="evenodd" clip-rule="evenodd" fill="#EE9C2D" d="M58.795,50.002c0-4.681-3.88-8.471-8.666-8.471H19.517
		c3.68-13.119,15.657-22.896,30.061-23.588V1C22.652,1.847,1,23.475,1,50.002C1,76.531,22.652,98.153,49.577,99V82.059
		C35.174,81.365,23.2,71.588,19.517,58.471h30.612C54.915,58.471,58.795,54.681,58.795,50.002"/>
</g>
</svg>
