<?xml version="1.0" encoding="utf-8"?>
<!-- Generator: Adobe Illustrator 18.1.1, SVG Export Plug-In . SVG Version: 6.00 Build 0)  -->
<!DOCTYPE svg PUBLIC "-//W3C//DTD SVG 1.1//EN" "http://www.w3.org/Graphics/SVG/1.1/DTD/svg11.dtd">
<svg version="1.1" id="Layer_1" xmlns="http://www.w3.org/2000/svg" xmlns:xlink="http://www.w3.org/1999/xlink" x="0px" y="0px"
	 viewBox="0 0 103 100" enable-background="new 0 0 103 100" xml:space="preserve">
<g>
	<path fill-rule="evenodd" clip-rule="evenodd" fill="#EE9C2D" d="M53.769,1v16.957C70.739,19.225,84.16,33.096,84.16,50
		S70.739,80.772,53.769,82.043V99c26.544-1.302,47.744-22.746,47.744-49S80.314,2.299,53.769,1"/>
	<path fill-rule="evenodd" clip-rule="evenodd" fill="#EE9C2D" d="M58.795,50.002c0-4.681-3.88-8.471-8.666-8.471H19.517
		c3.68-13.119,15.657-22.896,30.061-23.588V1C22.652,1.847,1,23.475,1,50.002C1,76.531,22.652,98.153,49.577,99V82.059
		C35.174,81.365,23.2,71.588,19.517,58.471h30.612C54.915,58.471,58.795,54.681,58.795,50.002"/>
</g>
</svg>
